<?xml version="1.0" encoding="UTF-8" standalone="no"?>
<!DOCTYPE svg PUBLIC "-//W3C//DTD SVG 1.1//EN"
 "http://www.w3.org/Graphics/SVG/1.1/DTD/svg11.dtd">
<!-- Generated by graphviz version 10.0.1 (20240210.2158)
 -->
<!-- Title: packages_morsecodepalindromes Pages: 1 -->
<svg width="770pt" height="188pt"
 viewBox="0.00 0.00 770.02 188.00" xmlns="http://www.w3.org/2000/svg" xmlns:xlink="http://www.w3.org/1999/xlink">
<g id="graph0" class="graph" transform="scale(1 1) rotate(0) translate(4 184)">
<title>packages_morsecodepalindromes</title>
<polygon fill="white" stroke="none" points="-4,4 -4,-184 766.02,-184 766.02,4 -4,4"/>
<!-- morsecodepalindromes -->
<g id="node1" class="node">
<title>morsecodepalindromes</title>
<polygon fill="none" stroke="black" points="145.85,-36 0,-36 0,0 145.85,0 145.85,-36"/>
<text text-anchor="middle" x="72.92" y="-13.8" font-family="Times,serif" font-size="14.00">morsecodepalindromes</text>
</g>
<!-- morsecodepalindromes.encode -->
<g id="node2" class="node">
<title>morsecodepalindromes.encode</title>
<polygon fill="none" stroke="black" points="552.42,-180 363.43,-180 363.43,-144 552.42,-144 552.42,-180"/>
<text text-anchor="middle" x="457.92" y="-157.8" font-family="Times,serif" font-size="14.00">morsecodepalindromes.encode</text>
</g>
<!-- morsecodepalindromes.is_palindrome -->
<g id="node3" class="node">
<title>morsecodepalindromes.is_palindrome</title>
<polygon fill="none" stroke="black" points="572.65,-108 343.2,-108 343.2,-72 572.65,-72 572.65,-108"/>
<text text-anchor="middle" x="457.92" y="-85.8" font-family="Times,serif" font-size="14.00">morsecodepalindromes.is_palindrome</text>
</g>
<!-- morsecodepalindromes.is_palindrome&#45;&gt;morsecodepalindromes.encode -->
<g id="edge1" class="edge">
<title>morsecodepalindromes.is_palindrome&#45;&gt;morsecodepalindromes.encode</title>
<path fill="none" stroke="black" d="M457.92,-108.3C457.92,-115.68 457.92,-124.48 457.92,-132.75"/>
<polygon fill="black" stroke="black" points="457.92,-142.68 453.42,-132.68 457.92,-138.9 457.92,-132.68 457.92,-132.68 457.92,-132.68 457.92,-138.9 462.42,-132.68 457.92,-142.68"/>
</g>
<!-- morsecodepalindromes.morsecodepalindromes -->
<g id="node4" class="node">
<title>morsecodepalindromes.morsecodepalindromes</title>
<polygon fill="none" stroke="black" points="443.52,-36 164.33,-36 164.33,0 443.52,0 443.52,-36"/>
<text text-anchor="middle" x="303.92" y="-13.8" font-family="Times,serif" font-size="14.00">morsecodepalindromes.morsecodepalindromes</text>
</g>
<!-- morsecodepalindromes.morsecodepalindromes&#45;&gt;morsecodepalindromes.is_palindrome -->
<g id="edge2" class="edge">
<title>morsecodepalindromes.morsecodepalindromes&#45;&gt;morsecodepalindromes.is_palindrome</title>
<path fill="none" stroke="black" d="M342.39,-36.48C362.77,-45.75 388,-57.22 409.68,-67.07"/>
<polygon fill="black" stroke="black" points="418.58,-71.11 407.61,-71.07 415.13,-69.55 409.47,-66.98 409.47,-66.98 409.47,-66.98 415.13,-69.55 411.33,-62.88 418.58,-71.11"/>
</g>
<!-- morsecodepalindromes.test_morsecodepalindrome -->
<g id="node5" class="node">
<title>morsecodepalindromes.test_morsecodepalindrome</title>
<polygon fill="none" stroke="black" points="762.02,-36 461.83,-36 461.83,0 762.02,0 762.02,-36"/>
<text text-anchor="middle" x="611.92" y="-13.8" font-family="Times,serif" font-size="14.00">morsecodepalindromes.test_morsecodepalindrome</text>
</g>
<!-- morsecodepalindromes.test_morsecodepalindrome&#45;&gt;morsecodepalindromes.is_palindrome -->
<g id="edge3" class="edge">
<title>morsecodepalindromes.test_morsecodepalindrome&#45;&gt;morsecodepalindromes.is_palindrome</title>
<path fill="none" stroke="black" d="M573.46,-36.48C553.08,-45.75 527.85,-57.22 506.16,-67.07"/>
<polygon fill="black" stroke="black" points="497.27,-71.11 504.51,-62.88 500.72,-69.55 506.38,-66.98 506.38,-66.98 506.38,-66.98 500.72,-69.55 508.24,-71.07 497.27,-71.11"/>
</g>
</g>
</svg>
