<?xml version="1.0" encoding="UTF-8" standalone="no"?>
<!DOCTYPE svg PUBLIC "-//W3C//DTD SVG 1.1//EN"
 "http://www.w3.org/Graphics/SVG/1.1/DTD/svg11.dtd">
<!-- Generated by graphviz version 9.0.0 (20230911.1827)
 -->
<!-- Title: classes_MyProject Pages: 1 -->
<svg width="381pt" height="117pt"
 viewBox="0.00 0.00 380.55 117.00" xmlns="http://www.w3.org/2000/svg" xmlns:xlink="http://www.w3.org/1999/xlink">
<g id="graph0" class="graph" transform="scale(1 1) rotate(0) translate(4 113)">
<title>classes_MyProject</title>
<polygon fill="white" stroke="none" points="-4,4 -4,-113 376.55,-113 376.55,4 -4,4"/>
<!-- A2_OOD.convexpolygonalarea.polygon.Phony -->
<g id="node1" class="node">
<title>A2_OOD.convexpolygonalarea.polygon.Phony</title>
<polygon fill="none" stroke="black" points="0,-17.3 0,-91.7 54,-91.7 54,-17.3 0,-17.3"/>
<text text-anchor="start" x="9" y="-75.1" font-family="Times,serif" font-size="14.00">Phony</text>
<polyline fill="none" stroke="black" points="0,-66.9 53.79,-66.9"/>
<polyline fill="none" stroke="black" points="0,-42.1 53.79,-42.1"/>
<text text-anchor="start" x="25.14" y="-25.5" font-family="Times,serif" font-size="14.00"> </text>
</g>
<!-- A2_OOD.convexpolygonalarea.polygon.Polygon -->
<g id="node2" class="node">
<title>A2_OOD.convexpolygonalarea.polygon.Polygon</title>
<polygon fill="none" stroke="black" points="72.4,-8.9 72.4,-100.1 183.6,-100.1 183.6,-8.9 72.4,-8.9"/>
<text text-anchor="start" x="104.66" y="-83.5" font-family="Times,serif" font-size="14.00">Polygon</text>
<polyline fill="none" stroke="black" points="72.4,-75.3 183.6,-75.3"/>
<text text-anchor="start" x="101.95" y="-58.7" font-family="Times,serif" font-size="14.00">coords</text>
<text text-anchor="start" x="101.95" y="-41.9" font-family="Times,serif" font-size="14.00">numverts</text>
<polyline fill="none" stroke="black" points="72.4,-33.7 183.6,-33.7"/>
<text text-anchor="start" x="80.4" y="-17.1" font-family="Times,serif" font-size="14.00">calc_area(): float</text>
</g>
<!-- A2_OOD.convexpolygonalarea.test_convexpolygonalarea.TestPolygon -->
<g id="node3" class="node">
<title>A2_OOD.convexpolygonalarea.test_convexpolygonalarea.TestPolygon</title>
<polygon fill="none" stroke="black" points="201.45,-0.5 201.45,-108.5 372.55,-108.5 372.55,-0.5 201.45,-0.5"/>
<text text-anchor="start" x="251.61" y="-91.9" font-family="Times,serif" font-size="14.00">TestPolygon</text>
<polyline fill="none" stroke="black" points="201.45,-83.7 372.55,-83.7"/>
<polyline fill="none" stroke="black" points="201.45,-58.9 372.55,-58.9"/>
<text text-anchor="start" x="209.45" y="-42.3" font-family="Times,serif" font-size="14.00">test_area_pentagon(): None</text>
<text text-anchor="start" x="209.45" y="-25.5" font-family="Times,serif" font-size="14.00">test_area_square(): None</text>
<text text-anchor="start" x="209.45" y="-8.7" font-family="Times,serif" font-size="14.00">test_area_triangle(): None</text>
</g>
</g>
</svg>
