<?xml version="1.0" encoding="UTF-8" standalone="no"?>
<!DOCTYPE svg PUBLIC "-//W3C//DTD SVG 1.1//EN"
 "http://www.w3.org/Graphics/SVG/1.1/DTD/svg11.dtd">
<!-- Generated by graphviz version 9.0.0 (20230911.1827)
 -->
<!-- Title: packages_MyProject Pages: 1 -->
<svg width="897pt" height="116pt"
 viewBox="0.00 0.00 897.50 116.00" xmlns="http://www.w3.org/2000/svg" xmlns:xlink="http://www.w3.org/1999/xlink">
<g id="graph0" class="graph" transform="scale(1 1) rotate(0) translate(4 112)">
<title>packages_MyProject</title>
<polygon fill="white" stroke="none" points="-4,4 -4,-112 893.5,-112 893.5,4 -4,4"/>
<!-- A2_OOD.convexpolygonalarea -->
<g id="node1" class="node">
<title>A2_OOD.convexpolygonalarea</title>
<polygon fill="none" stroke="black" points="193.67,-36 0,-36 0,0 193.67,0 193.67,-36"/>
<text text-anchor="middle" x="96.83" y="-13.8" font-family="Times,serif" font-size="14.00">A2_OOD.convexpolygonalarea</text>
</g>
<!-- A2_OOD.convexpolygonalarea.convexpolygonalarea -->
<g id="node2" class="node">
<title>A2_OOD.convexpolygonalarea.convexpolygonalarea</title>
<polygon fill="none" stroke="black" points="528.28,-36 211.39,-36 211.39,0 528.28,0 528.28,-36"/>
<text text-anchor="middle" x="369.83" y="-13.8" font-family="Times,serif" font-size="14.00">A2_OOD.convexpolygonalarea.convexpolygonalarea</text>
</g>
<!-- A2_OOD.convexpolygonalarea.run -->
<g id="node4" class="node">
<title>A2_OOD.convexpolygonalarea.run</title>
<polygon fill="none" stroke="black" points="477.75,-108 261.92,-108 261.92,-72 477.75,-72 477.75,-108"/>
<text text-anchor="middle" x="369.83" y="-85.8" font-family="Times,serif" font-size="14.00">A2_OOD.convexpolygonalarea.run</text>
</g>
<!-- A2_OOD.convexpolygonalarea.convexpolygonalarea&#45;&gt;A2_OOD.convexpolygonalarea.run -->
<g id="edge1" class="edge">
<title>A2_OOD.convexpolygonalarea.convexpolygonalarea&#45;&gt;A2_OOD.convexpolygonalarea.run</title>
<path fill="none" stroke="black" d="M369.83,-36.3C369.83,-43.68 369.83,-52.48 369.83,-60.75"/>
<polygon fill="black" stroke="black" points="369.83,-70.68 365.33,-60.68 369.83,-66.9 369.83,-60.68 369.83,-60.68 369.83,-60.68 369.83,-66.9 374.33,-60.68 369.83,-70.68"/>
</g>
<!-- A2_OOD.convexpolygonalarea.polygon -->
<g id="node3" class="node">
<title>A2_OOD.convexpolygonalarea.polygon</title>
<polygon fill="none" stroke="black" points="839.36,-108 596.31,-108 596.31,-72 839.36,-72 839.36,-108"/>
<text text-anchor="middle" x="717.83" y="-85.8" font-family="Times,serif" font-size="14.00">A2_OOD.convexpolygonalarea.polygon</text>
</g>
<!-- A2_OOD.convexpolygonalarea.test_convexpolygonalarea -->
<g id="node5" class="node">
<title>A2_OOD.convexpolygonalarea.test_convexpolygonalarea</title>
<polygon fill="none" stroke="black" points="889.5,-36 546.17,-36 546.17,0 889.5,0 889.5,-36"/>
<text text-anchor="middle" x="717.83" y="-13.8" font-family="Times,serif" font-size="14.00">A2_OOD.convexpolygonalarea.test_convexpolygonalarea</text>
</g>
<!-- A2_OOD.convexpolygonalarea.test_convexpolygonalarea&#45;&gt;A2_OOD.convexpolygonalarea.polygon -->
<g id="edge2" class="edge">
<title>A2_OOD.convexpolygonalarea.test_convexpolygonalarea&#45;&gt;A2_OOD.convexpolygonalarea.polygon</title>
<path fill="none" stroke="black" d="M717.83,-36.3C717.83,-43.68 717.83,-52.48 717.83,-60.75"/>
<polygon fill="black" stroke="black" points="717.83,-70.68 713.33,-60.68 717.83,-66.9 717.83,-60.68 717.83,-60.68 717.83,-60.68 717.83,-66.9 722.33,-60.68 717.83,-70.68"/>
</g>
</g>
</svg>
