<?xml version="1.0" encoding="UTF-8" standalone="no"?>
<!DOCTYPE svg PUBLIC "-//W3C//DTD SVG 1.1//EN"
 "http://www.w3.org/Graphics/SVG/1.1/DTD/svg11.dtd">
<!-- Generated by graphviz version 10.0.1 (20240210.2158)
 -->
<!-- Title: classes_morsecodepalindromes Pages: 1 -->
<svg width="686pt" height="100pt"
 viewBox="0.00 0.00 686.22 100.20" xmlns="http://www.w3.org/2000/svg" xmlns:xlink="http://www.w3.org/1999/xlink">
<g id="graph0" class="graph" transform="scale(1 1) rotate(0) translate(4 96.2)">
<title>classes_morsecodepalindromes</title>
<polygon fill="white" stroke="none" points="-4,4 -4,-96.2 682.22,-96.2 682.22,4 -4,4"/>
<!-- morsecodepalindromes.encode.MorseCodeTranslator -->
<g id="node1" class="node">
<title>morsecodepalindromes.encode.MorseCodeTranslator</title>
<polygon fill="none" stroke="black" points="0,-8.9 0,-83.3 138.86,-83.3 138.86,-8.9 0,-8.9"/>
<text text-anchor="start" x="8" y="-66.7" font-family="Times,serif" font-size="14.00">MorseCodeTranslator</text>
<polyline fill="none" stroke="black" points="0,-58.5 138.86,-58.5"/>
<text text-anchor="start" x="21.61" y="-41.9" font-family="Times,serif" font-size="14.00">morse_code_dict</text>
<polyline fill="none" stroke="black" points="0,-33.7 138.86,-33.7"/>
<text text-anchor="start" x="19.66" y="-17.1" font-family="Times,serif" font-size="14.00">encrypt(s: str): str</text>
</g>
<!-- morsecodepalindromes.is_palindrome.MorsePalindromeChecker -->
<g id="node2" class="node">
<title>morsecodepalindromes.is_palindrome.MorsePalindromeChecker</title>
<polygon fill="none" stroke="black" points="156.61,-8.9 156.61,-83.3 352.25,-83.3 352.25,-8.9 156.61,-8.9"/>
<text text-anchor="start" x="180.95" y="-66.7" font-family="Times,serif" font-size="14.00">MorsePalindromeChecker</text>
<polyline fill="none" stroke="black" points="156.61,-58.5 352.25,-58.5"/>
<text text-anchor="start" x="227.99" y="-41.9" font-family="Times,serif" font-size="14.00">translator</text>
<polyline fill="none" stroke="black" points="156.61,-33.7 352.25,-33.7"/>
<text text-anchor="start" x="164.61" y="-17.1" font-family="Times,serif" font-size="14.00">is_morse_palindrome(s: str): int</text>
</g>
<!-- morsecodepalindromes.test_morsecodepalindrome.TestMorse -->
<g id="node3" class="node">
<title>morsecodepalindromes.test_morsecodepalindrome.TestMorse</title>
<polygon fill="none" stroke="black" points="370.63,-0.5 370.63,-91.7 678.22,-91.7 678.22,-0.5 370.63,-0.5"/>
<text text-anchor="start" x="494.49" y="-75.1" font-family="Times,serif" font-size="14.00">TestMorse</text>
<polyline fill="none" stroke="black" points="370.63,-66.9 678.22,-66.9"/>
<polyline fill="none" stroke="black" points="370.63,-42.1 678.22,-42.1"/>
<text text-anchor="start" x="378.63" y="-25.5" font-family="Times,serif" font-size="14.00">test_morse_palindrome_known_cases(): None</text>
<text text-anchor="start" x="378.63" y="-8.7" font-family="Times,serif" font-size="14.00">test_morse_palindrome_random_cases(s: str): None</text>
</g>
</g>
</svg>
